# xmcd
#
# Track frame offsets:
#	150
#	13973
#	28656
#	46502
#	60231
#	73462
#	78264
#	89117
#	102563
#	124090
#	135596
#	154782
#	174526
#	188090
#	210423
#
# Disc length: 2944 seconds
#
# Revision: 0
# Processed by: cddbd v1.5.2PL0 Copyright (c) Steve Scherf et al.
# Submitted via: dBpowerAMP V4.0
#
DISCID=cb0b7e0f
DTITLE=Thes One - Lifestyle Marketing
DYEAR=1900
DGENRE=Hip-Hop
TTITLE0=Gate City Saving And Loan
TTITLE1=Northwestern Bell
TTITLE2=Target
TTITLE3=Hy-Vee
TTITLE4=F&F Daily C
TTITLE5=Hart Ski
TTITLE6=Grain Belt Beer
TTITLE7=Bobcat
TTITLE8=Cheetah
TTITLE9=GBX Malt Liquor
TTITLE10=Crystal Sugar
TTITLE11=Northwestern Bell 2
TTITLE12=Pan-Am 1
TTITLE13=Pan-Am 2
TTITLE14=Outro 
EXTD=
EXTT0=
EXTT1=
EXTT2=
EXTT3=
EXTT4=
EXTT5=
EXTT6=
EXTT7=
EXTT8=
EXTT9=
EXTT10=
EXTT11=
EXTT12=
EXTT13=
EXTT14=
PLAYORDER=
